<svg height="100pt" viewBox="0 0 100 100" width="100pt" xmlns="http://www.w3.org/2000/svg"><path d="m88 60.301v8.6992c0 10.5-8.5 19-19 19h-38c-10.5 0-19-8.5-19-19v-37.898c0-10.5 8.5-19 19-19h8.6016c-.30078-1.6016-.60156-3.1016-.60156-4.8008s.19922-3.1992.60156-4.8008h-8.6016c-15.699 0-28.5 12.801-28.5 28.602v37.898c0 15.801 12.801 28.5 28.5 28.5h37.898c15.801 0 28.5-12.801 28.5-28.5v-8.6016c-1.3984.30078-3 .60156-4.6992.60156s-3.1992-.30078-4.6992-.69922z"/><path d="m92.699 2.5h-35.801c-2.6016 0-4.8008 2.1016-4.8008 4.8008s2.1016 4.8008 4.8008 4.8008h24.301l-48.598 48.5c-1.8984 1.8984-1.8984 4.8984 0 6.6992.89844.89844 2.1016 1.3984 3.3984 1.3984 1.1992 0 2.3984-.5 3.3984-1.3984l48.602-48.602v24.301c0 2.6016 2.1016 4.8008 4.8008 4.8008s4.8008-2.1016 4.8008-4.8008v-35.699c-.10156-2.6992-2.2031-4.8008-4.9023-4.8008z"/></svg>